<?xml version="1.0" encoding="utf-8"?>
<!-- Generator: Adobe Illustrator 23.0.6, SVG Export Plug-In . SVG Version: 6.00 Build 0)  -->
<svg version="1.1" id="w.oncep._1_" xmlns="http://www.w3.org/2000/svg" xmlns:xlink="http://www.w3.org/1999/xlink" x="0px"
	 y="0px" viewBox="0 0 171 28" style="enable-background:new 0 0 171 28;" xml:space="preserve">
<style type="text/css">
	.st0{fill-rule:evenodd;clip-rule:evenodd;}
</style>
<g id="w.oncep.">
	<g>
		<path class="st0" d="M25.18,10.32L20.66,0.6h-3.92l-4.52,9.44L7.99,0.6H0.83l9.2,17.88h4.32l4.28-9.84l4.48,9.84h4.32L36.78,0.6
			h-7.12L25.18,10.32z M42.07,10.92c-0.88,0-1.96,0.28-2.92,1.24c-0.52,0.52-1.24,1.48-1.24,2.92s0.72,2.4,1.24,2.92
			c0.96,0.96,2.04,1.24,2.92,1.24c1.04,0,2.08-0.4,2.92-1.24c0.72-0.72,1.2-1.6,1.2-2.92s-0.48-2.2-1.16-2.88
			C44.15,11.32,43.07,10.92,42.07,10.92z M60.31,0c-3.88,0-6.48,1.52-7.96,2.96c-1.32,1.28-2.76,3.36-2.76,6.56
			c0,2.4,0.8,4.68,2.76,6.6c2.48,2.44,5.36,2.96,7.96,2.96c2.88,0,5.64-0.64,8-2.96c1.96-1.92,2.76-4.2,2.76-6.6
			c0-3.2-1.44-5.28-2.76-6.56C66.82,1.56,64.27,0,60.31,0z M63.19,12.36c-0.76,0.76-1.8,1.2-2.84,1.2c-1.08,0-2.12-0.44-2.88-1.2
			c-0.72-0.72-1.24-1.76-1.24-2.84c0-1.04,0.44-2.16,1.24-2.92c0.72-0.68,1.84-1.16,2.88-1.16c1,0,2.12,0.48,2.84,1.16
			c0.8,0.8,1.24,1.96,1.24,2.92C64.43,10.56,63.99,11.6,63.19,12.36z M86.83,0.2c-1.56,0-3.92,0.32-5.68,2.64V0.6h-6.4v17.88h6.4
			v-9.6c0-1.08,0.4-2.24,1.04-2.84c0.52-0.48,1.36-0.84,2.36-0.84c0.64,0,1.44,0.12,2.04,0.76c0.84,0.88,0.8,2.44,0.8,3.48v9.04h6.4
			V7.12c0-1.96-0.16-3.48-1.68-5C90.62,0.64,88.66,0.2,86.83,0.2z M100.31,2.76c-1.8,1.76-2.88,4.28-2.88,6.92
			c0,2.64,1.08,5.04,2.76,6.68c1.28,1.24,3.56,2.72,7.04,2.72c1.32,0,2.72-0.16,4.44-1v-5.36c-1.16,1-2.36,1.2-3.28,1.2
			c-1.64,0-2.68-0.72-3.28-1.36c-0.76-0.84-1.12-2-1.12-3c0-1.04,0.36-2.2,1.24-3.08c0.64-0.64,1.6-1.24,3.12-1.24
			c1.36,0,2.48,0.56,3.32,1.16V1.04c-1.6-0.8-3.04-1-4.16-1C104.47,0.04,101.99,1.16,100.31,2.76z M124.54,0.08
			c-3.52,0-5.84,1.16-7.32,2.6c-1.56,1.52-2.68,3.92-2.68,6.92c0,3.4,1.48,5.6,2.64,6.76c2.2,2.2,5.04,2.72,7.4,2.72
			c3.88,0,5.96-1.2,7.28-2.48s1.88-2.68,2.16-3.68h-6.12c-0.28,0.56-0.72,0.96-1.12,1.2c-0.8,0.44-1.92,0.48-2.08,0.48
			c-1.44,0-2.24-0.48-2.64-0.88c-0.76-0.76-1.12-2.04-1.12-3h13.32v-0.68c0-2-0.32-5.12-2.84-7.52
			C129.3,0.52,126.62,0.08,124.54,0.08z M121.15,7.04c0.12-0.8,0.52-1.44,0.96-1.92c0.68-0.68,1.52-0.96,2.6-0.96
			c0.64,0,1.8,0.12,2.64,0.96c0.48,0.48,0.88,1.24,1.04,1.92H121.15z M149.82,0c-2.64,0-4.36,1.16-5.48,2.56V0.6h-6.4v27.04h6.4
			V16.76c2,2.08,4.4,2.32,5.56,2.32c1.8,0,4.12-0.52,6.12-2.48c1.72-1.68,2.88-4.08,2.88-7.08c0-3.08-1.24-5.44-2.72-6.92
			C154.74,1.16,152.58,0,149.82,0z M151.1,12.44c-0.72,0.76-1.72,1.2-2.84,1.2c-1.08,0-2.12-0.44-2.88-1.2
			c-0.68-0.68-1.24-1.8-1.24-2.84c0-1,0.44-2.16,1.24-2.96c0.76-0.76,1.8-1.2,2.88-1.2c1.12,0,2.12,0.44,2.84,1.2
			c0.8,0.8,1.24,1.96,1.24,2.96C152.34,10.68,151.78,11.76,151.1,12.44z M169.42,12.2c-0.88-0.88-1.96-1.28-2.96-1.28
			c-0.88,0-1.96,0.28-2.92,1.24c-0.52,0.52-1.24,1.48-1.24,2.92s0.72,2.4,1.24,2.92c0.96,0.96,2.04,1.24,2.92,1.24
			c1.04,0,2.08-0.4,2.92-1.24c0.72-0.72,1.2-1.6,1.2-2.92S170.1,12.88,169.42,12.2z"/>
	</g>
</g>
</svg>
