<!-- Generated by IcoMoon.io -->
<svg version="1.1" xmlns="http://www.w3.org/2000/svg" width="32" height="32" viewBox="0 0 32 32">
<title>gift</title>
<path d="M25.372 7.5c0.59-0.784 0.94-1.758 0.94-2.813 0-2.585-2.103-4.688-4.688-4.688-1.899 0-3.599 1.133-4.329 2.886h-0l-1.296 3.112-1.296-3.112c-0.73-1.753-2.429-2.886-4.329-2.886-2.585 0-4.688 2.103-4.688 4.688 0 1.054 0.35 2.029 0.94 2.813h-6.628v7.563h1.875v16.938h28.25v-16.938h1.875v-7.563h-6.628zM19.027 3.607v0c0.438-1.052 1.458-1.732 2.598-1.732 1.551 0 2.813 1.262 2.813 2.813s-1.262 2.813-2.813 2.813c-0.899 0-1.632 0-2.529 0l3.049-2.032-1.040-1.56-3.049 2.033 0.972-2.333zM18.813 9.375v3.813h-5.625v-3.813h5.625zM18.813 15.063v6.237l-2.813-2.813-2.813 2.813v-6.237h5.625zM10.375 1.875c1.14 0 2.16 0.68 2.598 1.732h-0l0.972 2.333-3.050-2.033-1.040 1.56 3.049 2.032c-0.895 0-1.629 0-2.529 0-1.551 0-2.813-1.262-2.813-2.813s1.262-2.813 2.813-2.813zM1.875 9.375h9.438v3.813h-9.438v-3.813zM28.25 30.125h-24.5v-15.063h7.563v10.763l4.688-4.688 4.688 4.688v-10.763h7.563v15.063zM30.125 13.188h-9.438v-3.813h9.438v3.813z"></path>
</svg>
