<!-- Generated by IcoMoon.io -->
<svg version="1.1" xmlns="http://www.w3.org/2000/svg" width="32" height="32" viewBox="0 0 32 32">
<title>music</title>
<path d="M31.664 0.218c-0.213-0.178-0.494-0.253-0.768-0.203l-20.75 3.75c-0.446 0.081-0.771 0.469-0.771 0.923v17.499c-0.996-0.892-2.311-1.436-3.75-1.436-3.102 0-5.625 2.523-5.625 5.625s2.523 5.625 5.625 5.625 5.625-2.523 5.625-5.625v-14.029l18.875-3.411v10.439c-0.996-0.893-2.311-1.436-3.75-1.436-3.102 0-5.625 2.523-5.625 5.625s2.523 5.625 5.625 5.625 5.625-2.523 5.625-5.625v-22.625c0-0.278-0.123-0.541-0.336-0.719zM5.625 30.125c-2.068 0-3.75-1.682-3.75-3.75s1.682-3.75 3.75-3.75 3.75 1.682 3.75 3.75-1.682 3.75-3.75 3.75zM11.25 10.44v-4.97l18.875-3.411v4.97zM26.375 27.313c-2.068 0-3.75-1.682-3.75-3.75s1.682-3.75 3.75-3.75 3.75 1.682 3.75 3.75-1.682 3.75-3.75 3.75z"></path>
</svg>
