<!-- Generated by IcoMoon.io -->
<svg version="1.1" xmlns="http://www.w3.org/2000/svg" width="32" height="32" viewBox="0 0 32 32">
<title>padlock</title>
<path d="M16 0.941c-4.706 0-8.471 3.765-8.471 8.471v3.765c-1.6 0-2.824 1.224-2.824 2.824v12.235c0 1.6 1.224 2.824 2.824 2.824h16.941c1.6 0 2.824-1.224 2.824-2.824v-12.235c0-1.6-1.224-2.824-2.824-2.824v-3.765c0-4.706-3.765-8.471-8.471-8.471zM25.412 16v12.235c0 0.565-0.376 0.941-0.941 0.941h-16.941c-0.565 0-0.941-0.376-0.941-0.941v-12.235c0-0.565 0.376-0.941 0.941-0.941h16.941c0.565 0 0.941 0.376 0.941 0.941zM9.412 13.176v-3.765c0-3.671 2.918-6.588 6.588-6.588s6.588 2.918 6.588 6.588v3.765z"></path>
<path d="M16 17.882c-1.6 0-2.824 1.224-2.824 2.824 0 1.224 0.753 2.259 1.882 2.635v2.071c0 0.565 0.376 0.941 0.941 0.941s0.941-0.376 0.941-0.941v-2.071c1.129-0.376 1.882-1.412 1.882-2.635 0-1.6-1.224-2.824-2.824-2.824zM16 21.647c-0.565 0-0.941-0.376-0.941-0.941s0.376-0.941 0.941-0.941 0.941 0.376 0.941 0.941-0.376 0.941-0.941 0.941z"></path>
</svg>
