<!-- Generated by IcoMoon.io -->
<svg version="1.1" xmlns="http://www.w3.org/2000/svg" width="184" height="32" viewBox="0 0 184 32">
<title>star_02</title>
<path d="M15.988 0.025l4.568 11.395h11.371l-9.087 6.852 4.592 13.679-11.444-9.111-11.42 9.111 4.568-13.679-9.136-6.852h11.42z"></path>
<path d="M54.029 0.025l4.568 11.42h11.42l-9.111 6.827 4.568 13.679-11.444-9.111-11.42 9.111 4.592-13.704-9.16-6.827h11.444z"></path>
<path d="M92.095 0.025l4.568 11.42h11.395l-9.111 6.827 4.568 13.679-11.42-9.111-11.42 9.111 4.568-13.704-9.111-6.827h11.42z"></path>
<path d="M130.161 0.025l4.568 11.42h11.444l-9.185 6.827 4.592 13.679-11.42-9.111-11.444 9.111 4.568-13.679-9.136-6.852h11.42z"></path>
<path d="M168.203 0.025l4.568 11.42h11.42l-9.136 6.827 4.568 13.679-11.42-9.111-11.444 9.111 4.592-13.679-9.087-6.852h11.444z"></path>
</svg>
