<?xml version="1.0" encoding="utf-8"?>
<!-- Generator: Adobe Illustrator 24.0.0, SVG Export Plug-In . SVG Version: 6.00 Build 0)  -->
<svg version="1.1" id="w.oncep._1_" xmlns="http://www.w3.org/2000/svg" xmlns:xlink="http://www.w3.org/1999/xlink" x="0px"
	 y="0px" viewBox="0 0 171 28" style="enable-background:new 0 0 171 28;" xml:space="preserve">
<style type="text/css">
	.st0{fill-rule:evenodd;clip-rule:evenodd;fill:#FFFFFF;}
</style>
<g id="w.oncep.">
	<g>
		<path class="st0" d="M25.2,10.3l-4.5-9.7h-3.9L12.2,10L8,0.6H0.8L10,18.5h4.3l4.3-9.8l4.5,9.8h4.3l9.3-17.9h-7.1L25.2,10.3z
			 M42.1,10.9c-0.9,0-2,0.3-2.9,1.2c-0.5,0.5-1.2,1.5-1.2,2.9s0.7,2.4,1.2,2.9c1,1,2,1.2,2.9,1.2c1,0,2.1-0.4,2.9-1.2
			c0.7-0.7,1.2-1.6,1.2-2.9s-0.5-2.2-1.2-2.9C44.2,11.3,43.1,10.9,42.1,10.9z M60.3,0c-3.9,0-6.5,1.5-8,3c-1.3,1.3-2.8,3.4-2.8,6.6
			c0,2.4,0.8,4.7,2.8,6.6c2.5,2.4,5.4,3,8,3c2.9,0,5.6-0.6,8-3c2-1.9,2.8-4.2,2.8-6.6c0-3.2-1.4-5.3-2.8-6.6C66.8,1.6,64.3,0,60.3,0
			z M63.2,12.4c-0.8,0.8-1.8,1.2-2.8,1.2c-1.1,0-2.1-0.4-2.9-1.2c-0.7-0.7-1.2-1.8-1.2-2.8c0-1,0.4-2.2,1.2-2.9
			c0.7-0.7,1.8-1.2,2.9-1.2c1,0,2.1,0.5,2.8,1.2c0.8,0.8,1.2,2,1.2,2.9C64.4,10.6,64,11.6,63.2,12.4z M86.8,0.2
			c-1.6,0-3.9,0.3-5.7,2.6V0.6h-6.4v17.9h6.4V8.9c0-1.1,0.4-2.2,1-2.8c0.5-0.5,1.4-0.8,2.4-0.8c0.6,0,1.4,0.1,2,0.8
			c0.8,0.9,0.8,2.4,0.8,3.5v9h6.4V7.1c0-2-0.2-3.5-1.7-5C90.6,0.6,88.7,0.2,86.8,0.2z M100.3,2.8c-1.8,1.8-2.9,4.3-2.9,6.9
			s1.1,5,2.8,6.7c1.3,1.2,3.6,2.7,7,2.7c1.3,0,2.7-0.2,4.4-1v-5.4c-1.2,1-2.4,1.2-3.3,1.2c-1.6,0-2.7-0.7-3.3-1.4
			c-0.8-0.8-1.1-2-1.1-3c0-1,0.4-2.2,1.2-3.1c0.6-0.6,1.6-1.2,3.1-1.2c1.4,0,2.5,0.6,3.3,1.2V1c-1.6-0.8-3-1-4.2-1
			C104.5,0,102,1.2,100.3,2.8z M124.5,0.1c-3.5,0-5.8,1.2-7.3,2.6c-1.6,1.5-2.7,3.9-2.7,6.9c0,3.4,1.5,5.6,2.6,6.8
			c2.2,2.2,5,2.7,7.4,2.7c3.9,0,6-1.2,7.3-2.5s1.9-2.7,2.2-3.7h-6.1c-0.3,0.6-0.7,1-1.1,1.2c-0.8,0.4-1.9,0.5-2.1,0.5
			c-1.4,0-2.2-0.5-2.6-0.9c-0.8-0.8-1.1-2-1.1-3h13.3V10c0-2-0.3-5.1-2.8-7.5C129.3,0.5,126.6,0.1,124.5,0.1z M121.2,7
			c0.1-0.8,0.5-1.4,1-1.9c0.7-0.7,1.5-1,2.6-1c0.6,0,1.8,0.1,2.6,1c0.5,0.5,0.9,1.2,1,1.9H121.2z M149.8,0c-2.6,0-4.4,1.2-5.5,2.6
			v-2h-6.4v27h6.4V16.8c2,2.1,4.4,2.3,5.6,2.3c1.8,0,4.1-0.5,6.1-2.5c1.7-1.7,2.9-4.1,2.9-7.1c0-3.1-1.2-5.4-2.7-6.9
			C154.7,1.2,152.6,0,149.8,0z M151.1,12.4c-0.7,0.8-1.7,1.2-2.8,1.2c-1.1,0-2.1-0.4-2.9-1.2c-0.7-0.7-1.2-1.8-1.2-2.8
			c0-1,0.4-2.2,1.2-3c0.8-0.8,1.8-1.2,2.9-1.2c1.1,0,2.1,0.4,2.8,1.2c0.8,0.8,1.2,2,1.2,3C152.3,10.7,151.8,11.8,151.1,12.4z
			 M169.4,12.2c-0.9-0.9-2-1.3-3-1.3c-0.9,0-2,0.3-2.9,1.2c-0.5,0.5-1.2,1.5-1.2,2.9s0.7,2.4,1.2,2.9c1,1,2,1.2,2.9,1.2
			c1,0,2.1-0.4,2.9-1.2c0.7-0.7,1.2-1.6,1.2-2.9S170.1,12.9,169.4,12.2z"/>
	</g>
</g>
</svg>
